<svg height="511pt" viewBox="0 -79 511.99965 511" width="511pt" xmlns="http://www.w3.org/2000/svg"><path d="m418.097656 100.476562c-2.617187 0-5.199218 1.070313-7.066406 2.929688-1.863281 1.859375-2.933594 4.441406-2.933594 7.070312 0 2.640626 1.070313 5.21875 2.933594 7.070313 1.867188 1.867187 4.4375 2.9375 7.066406 2.9375 2.640625 0 5.210938-1.070313 7.082032-2.9375 1.859374-1.859375 2.929687-4.429687 2.929687-7.070313 0-2.628906-1.070313-5.199218-2.929687-7.070312-1.871094-1.859375-4.441407-2.929688-7.082032-2.929688zm0 0" id="id_108" style="fill: rgb(255, 255, 255);"></path><path d="m510.4375 67.101562c-33.53125-52.742187-101.0625-71.621093-157.085938-43.902343l-59.988281 29.679687c-.210937-.105468-.417969-.214844-.640625-.304687l-123.839844-51.3125c-3.738281-1.546875-8.039062-.691407-10.898437 2.167969l-29.972656 29.972656c-2.058594 2.058594-3.117188 4.910156-2.898438 7.8125.21875 2.90625 1.6875 5.570312 4.03125 7.300781l69.402344 51.269531-97.285156 48.128906-40.140625-44.90625c-1.898438-2.125-4.609375-3.335937-7.457032-3.335937h-43.664062c-3.492188 0-6.730469 1.820313-8.546875 4.804687-1.8125 2.984376-1.9375 6.699219-.332031 9.800782l52.734375 101.664062c12.03125 23.195313 35.675781 36.636719 60.289062 36.636719 9.382813 0 18.90625-1.953125 27.980469-6.066406l87.84375-39.800781-21.542969 134.421874c-.460937 2.890626.363281 5.839844 2.265625 8.070313 1.898438 2.226563 4.679688 3.511719 7.609375 3.511719h45.21875c4.046875 0 7.691407-2.4375 9.238281-6.175782l81.15625-195.992187 31.855469-14.429687c5.027344-2.28125 7.257813-8.207032 4.980469-13.238282-2.28125-5.027344-8.203125-7.257812-13.238281-4.980468l-243.640625 110.398437c-23.191406 10.503906-50.539063 1.03125-62.261719-21.566406l-45.15625-87.058594h22.738281l42.230469 47.242187c2.996094 3.351563 7.859375 4.292969 11.890625 2.296876l258.90625-128.085938c43.324219-21.433594 94.882812-9.539062 124.5625 27.257812l-36.339844 16.46875c-5.03125 2.277344-7.261718 8.203126-4.980468 13.234376s8.207031 7.261718 13.234374 4.980468l47.429688-21.492187c2.640625-1.195313 4.632812-3.476563 5.457031-6.253907.828125-2.773437.410157-5.773437-1.144531-8.21875zm-253.597656 265.609376h-26.808594l21.777344-135.898438 75.460937-34.191406zm-106.46875-293.378907 17.03125-17.035156 102.1875 42.339844-50.882813 25.175781zm0 0" id="id_109" style="fill: rgb(255, 255, 255);"></path><path d="m416.039062 58.289062c-2.363281-4.992187-8.328124-7.121093-13.320312-4.757812l-27.410156 12.976562c-4.992188 2.363282-7.121094 8.328126-4.761719 13.320313 1.710937 3.609375 5.300781 5.722656 9.046875 5.722656 1.433594 0 2.890625-.3125 4.273438-.964843l27.410156-12.980469c4.992187-2.363281 7.125-8.324219 4.761718-13.316407zm0 0" id="id_110" style="fill: rgb(255, 255, 255);"></path><path d="m334.445312 85.855469-32.933593 15.589843c-4.988281 2.359376-7.121094 8.324219-4.757813 13.316407 1.707032 3.609375 5.300782 5.722656 9.042969 5.722656 1.4375 0 2.894531-.3125 4.273437-.964844l32.929688-15.589843c4.992188-2.363282 7.125-8.324219 4.761719-13.316407-2.363281-4.992187-8.328125-7.125-13.316407-4.757812zm0 0" id="id_111" style="fill: rgb(255, 255, 255);"></path><path d="m262.742188 120.066406-35.511719 16.734375c-4.996094 2.355469-7.140625 8.3125-4.785157 13.308594 1.707032 3.621094 5.300782 5.738281 9.054688 5.738281 1.425781 0 2.878906-.304687 4.253906-.953125l35.511719-16.734375c4.996094-2.355468 7.140625-8.3125 4.785156-13.308594-2.355469-4.996093-8.316406-7.140624-13.308593-4.785156zm0 0" id="id_112" style="fill: rgb(255, 255, 255);"></path><path d="m182.308594 157.96875-36.902344 17.390625c-4.996094 2.355469-7.136719 8.3125-4.78125 13.308594 1.703125 3.621093 5.300781 5.742187 9.050781 5.742187 1.429688 0 2.878907-.308594 4.257813-.957031l36.902344-17.390625c4.996093-2.355469 7.136718-8.3125 4.78125-13.308594-2.351563-4.996094-8.3125-7.140625-13.308594-4.785156zm0 0" id="id_113" style="fill: rgb(255, 255, 255);"></path><path d="m106.558594 194.707031c-1.859375 1.859375-2.929688 4.441407-2.929688 7.070313s1.070313 5.210937 2.929688 7.070312 4.441406 2.929688 7.070312 2.929688 5.210938-1.070313 7.070313-2.929688 2.929687-4.441406 2.929687-7.070312-1.070312-5.210938-2.929687-7.070313-4.429688-2.929687-7.070313-2.929687c-2.628906 0-5.210937 1.070312-7.070312 2.929687zm0 0" id="id_114" style="fill: rgb(255, 255, 255);"></path></svg>